<svg width="69" height="50" viewBox="0 0 69 50" fill="none" xmlns="http://www.w3.org/2000/svg">
<rect width="69" height="50" fill="#4EA64E"/>
<g clip-path="url(#clip0_138_80)">
<rect width="1440" height="1024" transform="translate(-49 -31)" fill="#4EA64E"/>
<rect width="1440" height="275" transform="translate(-49 -31)" fill="#4EA64E"/>
<path d="M53.8499 1.78416L66.8079 13.5343C67.6569 14.3041 67.9979 15.4876 67.6888 16.5911L62.8532 33.8549C62.566 34.8801 61.761 35.6789 60.7336 35.9581L14.3938 48.5526C12.8133 48.9821 11.1779 48.0757 10.7045 46.5078L1.96594 17.5654C1.47286 15.9323 2.42696 14.2147 4.07401 13.7704L51.0301 1.10444C52.0244 0.836216 53.087 1.09234 53.8499 1.78416Z" fill="#F08604" stroke="#F08604" stroke-width="1.815"/>
<!-- inner -->
<path d="M14.7691 35.2384C13.8574 35.5112 13.0272 35.4736 12.2783 35.1254C11.5294 34.7772 11.0276 34.1775 10.7728 33.3262C10.6102 32.7828 10.5168 31.0642 10.4927 28.1704C10.4773 26.8002 10.4901 25.678 10.5311 24.804C10.5457 24.5891 10.6542 24.4021 10.8565 24.2428C11.0571 24.0776 11.2901 23.9552 11.5558 23.8757C11.8818 23.7781 12.2014 23.7581 12.5147 23.8156C12.8322 23.8653 13.0298 24.02 13.1075 24.2796C13.1291 24.3521 13.1406 24.4342 13.1417 24.5259L13.132 25.5156L13.1607 27.293C13.1661 27.4427 13.1769 27.5447 13.1931 27.599C13.2058 27.6413 13.2212 27.6597 13.2393 27.6543C13.2755 27.6435 13.3187 27.6009 13.3688 27.5267C13.535 27.3125 13.7225 27.1479 13.9314 27.0327C14.1017 26.9423 14.2986 26.8636 14.5219 26.7968C14.9989 26.654 15.4263 26.6642 15.804 26.8275C16.186 26.9829 16.5127 27.2502 16.7841 27.6294C17.0597 28.0008 17.2725 28.4371 17.4225 28.9382C17.6303 29.6325 17.7077 30.3856 17.6546 31.1975C17.6016 32.0093 17.3941 32.7556 17.0321 33.4362C16.5618 34.3269 15.8075 34.9276 14.7691 35.2384ZM14.3976 32.8432C14.5002 32.8125 14.592 32.7127 14.673 32.5437C14.8127 32.2191 14.902 31.7483 14.9411 31.1314C14.9844 30.3751 14.9636 29.855 14.8787 29.5713C14.801 29.3117 14.6957 29.2017 14.5629 29.2415C14.4422 29.2776 14.3437 29.4321 14.2674 29.7049C14.1863 30.0712 14.118 30.6673 14.0625 31.493C14.0193 32.0519 14.023 32.4159 14.0736 32.585C14.1043 32.6876 14.1499 32.7628 14.2102 32.8105C14.2687 32.8522 14.3312 32.8631 14.3976 32.8432ZM21.3013 33.2932C20.8545 33.4269 20.3834 33.4133 19.8879 33.2524C19.1456 33.0141 18.6173 32.3697 18.3029 31.3192C18.077 30.5645 18.0048 29.7408 18.0863 28.8481C18.1677 27.9554 18.4269 27.1509 18.8638 26.4347C19.3049 25.7106 19.9427 25.204 20.7771 24.9148L20.8133 24.9039C21.0608 24.8299 21.2712 24.7965 21.4445 24.8038C21.6159 24.8052 21.7571 24.8155 21.8682 24.8349C21.9853 24.8525 22.0589 24.8568 22.0891 24.8477L22.1317 24.8251C22.2277 24.7503 22.3391 24.694 22.4659 24.656C22.6712 24.5946 22.8948 24.5836 23.1369 24.6229C23.3789 24.6623 23.5964 24.7518 23.7895 24.8914C23.9886 25.0291 24.1243 25.2188 24.1966 25.4603C24.2237 25.5508 24.2405 25.651 24.2471 25.7609L24.2754 26.7786C24.3211 27.9425 24.3481 28.7797 24.3562 29.2904C24.3539 30.0081 24.397 30.5149 24.4856 30.8107C24.5091 30.8892 24.5437 30.9611 24.5896 31.0263C24.6758 31.1386 24.737 31.2552 24.7731 31.3759C24.8111 31.5027 24.8019 31.637 24.7457 31.7788C24.6689 31.9399 24.5517 32.0868 24.3941 32.2195C24.2365 32.3522 24.0641 32.4466 23.8769 32.5026C23.4905 32.6183 23.1197 32.522 22.7643 32.214C22.7354 32.1832 22.6979 32.168 22.6521 32.1686C22.6098 32.1813 22.5742 32.2051 22.5452 32.2401C22.353 32.5212 22.1646 32.7487 21.9797 32.9224C21.7991 33.0883 21.573 33.2119 21.3013 33.2932ZM21.0222 30.9099C21.1007 30.8864 21.1819 30.7733 21.266 30.5705C21.3482 30.3617 21.4178 30.0448 21.4748 29.6199C21.524 29.2566 21.5559 28.9017 21.5706 28.5552C21.5994 27.948 21.5875 27.5568 21.5351 27.3817C21.4755 27.1825 21.3796 27.0928 21.2474 27.1126C21.1447 27.1433 21.0375 27.2905 20.9257 27.5543C20.789 27.9767 20.7053 28.4885 20.6748 29.0897C20.6363 29.8183 20.6586 30.3214 20.7417 30.5991C20.8104 30.8286 20.9039 30.9322 21.0222 30.9099ZM27.3807 31.4835C27.1392 31.5558 26.883 31.5898 26.612 31.5854C26.3391 31.5749 26.0986 31.5186 25.8904 31.4165C25.6744 31.3101 25.5339 31.1482 25.4688 30.9309C25.4489 30.8645 25.439 30.7984 25.4391 30.7326C25.42 30.3173 25.3815 29.1776 25.3236 27.3135C25.3225 26.189 25.2424 25.361 25.0834 24.8297C25.0148 24.6003 24.9593 24.459 24.9171 24.4059L24.8999 24.3814C24.8602 24.2486 24.9457 24.0947 25.1565 23.9198C25.3672 23.7449 25.6296 23.6105 25.9435 23.5165C26.2394 23.428 26.5421 23.4064 26.8517 23.4519C27.1674 23.4956 27.4396 23.6575 27.6681 23.9378C27.6929 23.9764 27.7326 24.0763 27.7875 24.2375C27.8164 24.3341 27.8429 24.4117 27.867 24.4703C27.9475 24.1896 28.053 23.9048 28.1836 23.6157C28.3141 23.3267 28.4736 23.0684 28.6621 22.841C28.8566 22.6117 29.0958 22.4547 29.3795 22.3697C29.5486 22.3191 29.7167 22.2984 29.8839 22.3076C30.0493 22.3107 30.1963 22.3621 30.3248 22.4618C30.4575 22.5536 30.5573 22.7112 30.6242 22.9346C30.7073 23.2123 30.727 23.5748 30.6832 24.0221C30.6455 24.4676 30.5089 24.7255 30.2735 24.796L30.1711 24.8168C30.0353 24.8245 29.9221 24.8419 29.8316 24.869C29.3775 25.0444 29.0269 25.4224 28.7796 26.0029C28.5384 26.5816 28.3723 27.2135 28.2813 27.8986C28.1945 28.5758 28.1606 29.1549 28.1796 29.636L28.2161 30.681C28.2202 30.8705 28.1413 31.0355 27.9794 31.1761C27.8218 31.3088 27.6222 31.4113 27.3807 31.4835ZM34.1084 26.9933C34.1869 26.9698 34.2682 26.8567 34.3522 26.6539C34.4344 26.4451 34.504 26.1282 34.5611 25.7033C34.6102 25.34 34.6421 24.985 34.6568 24.6386C34.6856 24.0313 34.6738 23.6402 34.6214 23.4651C34.5617 23.2659 34.4658 23.1762 34.3336 23.196C34.231 23.2267 34.1237 23.3739 34.0119 23.6376C33.8752 24.0601 33.7916 24.5719 33.761 25.1731C33.7225 25.9017 33.7448 26.4048 33.8279 26.6825C33.8966 26.912 33.9901 27.0155 34.1084 26.9933ZM35.0648 32.2328C34.5214 32.3954 34.0626 32.467 33.6884 32.4474C32.7691 32.3871 32.2073 32.0158 32.0031 31.3335C31.9453 31.1403 31.9285 30.9414 31.9528 30.7368C31.9808 30.4785 32.0853 30.3222 32.2664 30.268C32.3087 30.2553 32.3537 30.2517 32.4013 30.2572L32.9446 30.292C33.2434 30.3012 33.5709 30.2525 33.9271 30.1459C33.9452 30.1405 34.053 30.105 34.2504 30.0393C34.4557 29.9779 34.6414 29.8071 34.8076 29.5272C34.9448 29.2822 35.0163 28.8398 35.0221 28.1999C34.7907 28.5257 34.5829 28.7326 34.3988 28.8207C34.2551 28.89 34.1168 28.9445 33.984 28.9843C33.4768 29.1361 32.9647 29.0953 32.4475 28.8619C31.9364 28.6268 31.5589 28.1017 31.3149 27.2866C31.1125 26.6104 31.059 25.8272 31.1544 24.9369C31.2479 24.0406 31.5152 23.2304 31.9564 22.5063C32.3806 21.8136 32.8722 21.3573 33.4313 21.1373L33.7184 21.0415C34.0927 20.9295 34.4238 20.8929 34.7117 20.9317C34.9043 20.9596 35.1137 21.0548 35.3399 21.2173C35.442 21.1407 35.5776 21.0771 35.7466 21.0266C36.133 20.9109 36.4756 20.8906 36.7743 20.9657C37.0773 21.0328 37.2749 21.2204 37.367 21.5283C37.4032 21.6491 37.4209 21.7852 37.4202 21.9367C37.4252 23.5798 37.4435 25.0478 37.4753 26.3408C37.501 27.5698 37.4929 28.5097 37.4508 29.1604C37.4095 29.5937 37.329 29.9731 37.2092 30.2984C37.0786 30.6532 36.8771 30.9799 36.6047 31.2786C36.5859 31.3039 36.5633 31.3271 36.5367 31.3482C36.1229 31.7681 35.6323 32.063 35.0648 32.2328ZM41.2974 27.3085C40.8507 27.4422 40.3795 27.4286 39.8841 27.2678C39.1418 27.0294 38.6134 26.385 38.299 25.3345C38.0731 24.5798 38.0009 23.7561 38.0824 22.8634C38.1638 21.9707 38.423 21.1662 38.8599 20.45C39.301 19.7259 39.9388 19.2193 40.7732 18.9301L40.8094 18.9192C41.057 18.8452 41.2673 18.8118 41.4406 18.8192C41.612 18.8205 41.7532 18.8308 41.8643 18.8502C41.9814 18.8678 42.055 18.8721 42.0852 18.863L42.1278 18.8404C42.2238 18.7656 42.3352 18.7093 42.462 18.6713C42.6673 18.6099 42.8909 18.5989 43.133 18.6383C43.375 18.6776 43.5926 18.7671 43.7856 18.9067C43.9847 19.0444 44.1204 19.2341 44.1927 19.4756C44.2198 19.5661 44.2366 19.6664 44.2432 19.7762L44.2715 20.794C44.3173 21.9578 44.3442 22.795 44.3523 23.3057C44.35 24.0234 44.3931 24.5302 44.4817 24.826C44.5052 24.9045 44.5398 24.9764 44.5857 25.0416C44.6719 25.1539 44.7331 25.2705 44.7693 25.3912C44.8072 25.518 44.7981 25.6523 44.7418 25.7941C44.6651 25.9552 44.5479 26.1022 44.3902 26.2349C44.2326 26.3675 44.0602 26.4619 43.873 26.5179C43.4866 26.6336 43.1158 26.5373 42.7604 26.2293C42.7315 26.1985 42.6941 26.1833 42.6482 26.1839C42.6059 26.1966 42.5703 26.2204 42.5413 26.2554C42.3492 26.5366 42.1607 26.764 41.9759 26.9377C41.7953 27.1036 41.5691 27.2272 41.2974 27.3085ZM41.0183 24.9252C41.0968 24.9017 41.178 24.7886 41.2621 24.5858C41.3443 24.377 41.4139 24.0602 41.471 23.6352C41.5201 23.2719 41.552 22.917 41.5667 22.5705C41.5955 21.9633 41.5837 21.5721 41.5313 21.397C41.4716 21.1978 41.3757 21.1081 41.2435 21.1279C41.1409 21.1586 41.0336 21.3058 40.9218 21.5696C40.7851 21.992 40.7015 22.5038 40.6709 23.105C40.6324 23.8336 40.6547 24.3367 40.7378 24.6145C40.8065 24.8439 40.9 24.9475 41.0183 24.9252ZM47.3497 25.507C46.7943 25.6732 46.3156 25.6126 45.9138 25.325C45.6736 25.16 45.5021 24.9055 45.3991 24.5613C45.3413 24.3681 45.3079 24.1578 45.299 23.9302C45.2671 22.7688 45.2427 21.8189 45.2257 21.0807C45.2129 20.3346 45.208 19.4282 45.2111 18.3616C45.2227 18.1806 45.3369 18.0016 45.5538 17.8249C45.7706 17.6482 46.0269 17.5156 46.3227 17.427C46.534 17.3638 46.7423 17.3343 46.9475 17.3387C47.1528 17.3431 47.3326 17.3945 47.4871 17.493C47.6476 17.5897 47.7613 17.7497 47.8281 17.9731C47.8607 18.0818 47.8796 18.2109 47.8849 18.3607C47.893 19.0029 47.9101 19.6096 47.9363 20.1806C47.9606 20.7456 47.9769 21.2177 47.9851 21.5968C48.0025 22.7099 48.0492 23.3932 48.1251 23.6468C48.172 23.8038 48.226 23.9291 48.2869 24.0227C48.3478 24.1163 48.3918 24.2083 48.4189 24.2989C48.4876 24.5283 48.4053 24.77 48.1722 25.024C47.9499 25.2484 47.6757 25.4094 47.3497 25.507ZM46.7254 16.4974C46.3812 16.6004 46.0492 16.5682 45.7294 16.4008C45.4157 16.2316 45.2082 15.9779 45.107 15.6398C45.004 15.2957 45.0371 14.9667 45.2063 14.6529C45.3816 14.3373 45.6413 14.128 45.9854 14.0251C46.3295 13.9221 46.6585 13.9552 46.9723 14.1244C47.2921 14.2918 47.5035 14.5476 47.6065 14.8917C47.7077 15.2298 47.6706 15.5566 47.4954 15.8722C47.3262 16.186 47.0695 16.3944 46.7254 16.4974ZM53.04 20.6167C53.0463 20.1544 53.0523 19.7348 53.058 19.3582C53.0667 19.0135 53.0699 18.6836 53.0677 18.3685C53.0648 18.205 53.0507 18.0809 53.0254 17.9964C52.991 17.8817 52.9398 17.8312 52.8715 17.8451C52.7931 17.8686 52.7049 17.9805 52.6069 18.1808C52.3597 18.7613 52.1536 19.5894 51.9887 20.665C51.8299 21.7387 51.714 22.6154 51.6411 23.2951L51.6129 23.5304L51.6146 23.6681C51.6145 23.8655 51.5447 24.0278 51.4052 24.1551C51.2638 24.2763 51.0845 24.3695 50.8671 24.4345C50.68 24.4905 50.4805 24.5272 50.2686 24.5446C49.9649 24.5631 49.6994 24.511 49.4719 24.3883C49.2444 24.2656 49.1008 24.1047 49.0412 23.9054C49.0286 23.8632 49.021 23.8161 49.0187 23.7642L48.8933 20.279C48.8895 19.5631 48.8375 18.8288 48.7371 18.076C48.7197 17.9299 48.6911 17.7904 48.6514 17.6576C48.5972 17.4765 48.5249 17.3008 48.4344 17.1305C48.4369 16.985 48.5436 16.8248 48.7544 16.6499C48.9651 16.475 49.2184 16.3433 49.5143 16.2547C49.7377 16.1879 49.9677 16.1651 50.2043 16.1864C50.4391 16.2016 50.6557 16.2881 50.8542 16.4458C51.0509 16.5974 51.2007 16.8453 51.3037 17.1894C51.329 17.2739 51.3501 17.3663 51.3669 17.4665C51.4293 17.1255 51.5032 16.8666 51.5884 16.6898C51.858 16.096 52.2675 15.6511 52.817 15.3551C52.904 15.3159 52.9927 15.2827 53.0833 15.2556C53.4938 15.1328 53.9121 15.1457 54.3382 15.2945C54.7625 15.4372 55.0985 15.6919 55.3464 16.0584C55.4585 16.2354 55.5472 16.4325 55.6122 16.6498C55.6971 16.9336 55.7443 17.2451 55.7538 17.5844C55.7608 17.8717 55.7645 18.3015 55.7647 18.8737C55.7566 19.1985 55.755 19.4128 55.7597 19.5166C55.7613 19.9174 55.7689 20.3164 55.7825 20.7136C55.8022 21.109 55.8409 21.4033 55.8987 21.5965C55.9421 21.7414 55.9985 21.8528 56.0678 21.9307C56.1233 22.0062 56.1655 22.0922 56.1944 22.1888C56.2251 22.2915 56.2257 22.4031 56.196 22.5239C56.1646 22.6385 56.0818 22.7685 55.9477 22.9139C55.7012 23.1456 55.4271 23.3066 55.1252 23.3969C54.8837 23.4692 54.6308 23.4923 54.3664 23.4661C54.102 23.44 53.8606 23.3478 53.6422 23.1895C53.4299 23.0294 53.274 22.7833 53.1746 22.4513C53.1114 22.24 53.0711 21.9955 53.0537 21.7178C53.0425 21.4383 53.0379 21.0713 53.04 20.6167Z" fill="white"/>
<circle cx="63.0957" cy="16.0833" r="2.1175" fill="white" stroke="#2369D3" stroke-width="0.9075"/>
<path d="M63.1968 16.5371C63.4977 14.3658 65.3431 10.8087 70.3177 13.9507C73.059 15.4514 79.2238 16.9202 81.9518 10.7896" stroke="#2369D3" stroke-width="1.815" stroke-linecap="round"/>
</g>
<defs>
<clipPath id="clip0_138_80">
<rect width="1440" height="1024" fill="white" transform="translate(-49 -31)"/>
</clipPath>
</defs>
</svg>
