<svg width="79" height="79" viewBox="0 0 79 79" fill="none" xmlns="http://www.w3.org/2000/svg">
<rect width="79" height="79" fill="#AEAEAE"/>
<g id="Landing V2">
<g id="Frame 1021">
<rect width="1440" height="700" transform="translate(-686 -245)" fill="white"/>
<g id="Frame 1043">
<g id="Frame 1042">
<g id="Group 330">
<g id="Group 324">
<g id="Frame 1017">
<rect x="-148" y="60.86" width="364" height="235" rx="12" fill="#F2FFF2"/>
</g>
</g>
<g id="Group 327">
<circle id="Ellipse 1" cx="39.5001" cy="39.36" r="39.36" fill="#186718"/>
<path id="2" d="M55.9699 60.4H22.7299V52.36C22.7299 48.86 23.8799 45.92 26.1799 43.54C27.7799 41.9 30.0699 40.26 33.0499 38.62C34.0699 38.06 34.9899 37.51 35.8099 36.97C37.6099 35.79 38.5099 34.56 38.5099 33.28C38.5099 32.82 38.3299 32.43 37.9699 32.11C37.6099 31.77 37.1699 31.52 36.6499 31.36C36.1299 31.18 35.6199 31.09 35.1199 31.09C33.7399 31.09 32.1199 31.44 30.2599 32.14C28.3999 32.82 26.8599 33.72 25.6399 34.84V20.8C27.3599 19.84 29.4099 19.12 31.7899 18.64C34.1899 18.14 36.5099 17.89 38.7499 17.89C42.2099 17.89 45.1599 18.5 47.5999 19.72C50.0399 20.92 51.9099 22.49 53.2099 24.43C54.6099 26.53 55.3099 28.76 55.3099 31.12C55.3099 33.24 54.7199 35.34 53.5399 37.42C52.3799 39.48 50.4899 41.31 47.8699 42.91C46.2099 43.87 44.5399 44.72 42.8599 45.46C40.5199 46.42 38.6099 47.49 37.1299 48.67H55.9699V60.4Z" fill="white"/>
</g>
</g>
</g>
</g>
</g>
</g>
</svg>
